<svg xmlns="http://www.w3.org/2000/svg" width="100%" height="100%" viewBox="0 0 900 600" preserveAspectRatio="xMidYMid meet">
  <defs>
    <linearGradient id="skyGrad" x1="0" y1="0" x2="0" y2="1">
      <stop offset="0%" stop-color="#1a2a3e"/>
      <stop offset="40%" stop-color="#2e4562"/>
      <stop offset="75%" stop-color="#4a6a8a"/>
      <stop offset="100%" stop-color="#6a8aa8"/>
    </linearGradient>
    <linearGradient id="streetGrad" x1="0" y1="0" x2="0" y2="1">
      <stop offset="0%" stop-color="#5a5e65"/>
      <stop offset="100%" stop-color="#3a3e44"/>
    </linearGradient>
    <linearGradient id="bldg1" x1="0" y1="0" x2="0" y2="1">
      <stop offset="0%" stop-color="#4a5568"/>
      <stop offset="100%" stop-color="#3a4555"/>
    </linearGradient>
    <linearGradient id="bldg2" x1="0" y1="0" x2="0" y2="1">
      <stop offset="0%" stop-color="#5a6070"/>
      <stop offset="100%" stop-color="#444a58"/>
    </linearGradient>
    <linearGradient id="bldg3" x1="0" y1="0" x2="0" y2="1">
      <stop offset="0%" stop-color="#556075"/>
      <stop offset="100%" stop-color="#3e4a5e"/>
    </linearGradient>
    <radialGradient id="lampGlow" cx="0.5" cy="0.5" r="0.5">
      <stop offset="0%" stop-color="#ffeebb" stop-opacity="0.9"/>
      <stop offset="40%" stop-color="#ffdd88" stop-opacity="0.4"/>
      <stop offset="100%" stop-color="#ffcc55" stop-opacity="0"/>
    </radialGradient>
    <filter id="blur2" x="-30%" y="-30%" width="160%" height="160%">
      <feGaussianBlur stdDeviation="2.5"/>
    </filter>
    <filter id="blur5" x="-40%" y="-40%" width="180%" height="180%">
      <feGaussianBlur stdDeviation="5"/>
    </filter>
    <filter id="blur8" x="-50%" y="-50%" width="200%" height="200%">
      <feGaussianBlur stdDeviation="8"/>
    </filter>
    <filter id="frostBlur" x="-20%" y="-20%" width="140%" height="140%">
      <feGaussianBlur stdDeviation="12"/>
    </filter>
  </defs>

  <!-- Sky -->
  <rect x="0" y="0" width="900" height="600" fill="url(#skyGrad)"/>

  <!-- Distant hills / horizon -->
  <path d="M0,340 Q120,300 240,325 Q380,290 500,320 Q650,295 780,310 Q850,305 900,315 L900,420 L0,420Z" fill="#3a4e65" opacity="0.5"/>

  <!-- Buildings - back row -->
  <rect x="30" y="220" width="80" height="200" rx="2" fill="url(#bldg1)"/>
  <rect x="120" y="180" width="100" height="240" rx="2" fill="url(#bldg2)"/>
  <rect x="240" y="240" width="70" height="180" rx="2" fill="url(#bldg1)"/>
  <rect x="330" y="200" width="90" height="220" rx="2" fill="url(#bldg3)"/>
  <rect x="500" y="210" width="85" height="210" rx="2" fill="url(#bldg2)"/>
  <rect x="600" y="240" width="75" height="180" rx="2" fill="url(#bldg1)"/>
  <rect x="700" y="190" width="95" height="230" rx="2" fill="url(#bldg3)"/>
  <rect x="810" y="230" width="90" height="190" rx="2" fill="url(#bldg2)"/>

  <!-- Building windows (warm glow) -->
  <g fill="#eedd88" opacity="0.7">
    <!-- Building 1 -->
    <rect x="42" y="240" width="12" height="14" rx="1"/><rect x="62" y="240" width="12" height="14" rx="1"/><rect x="82" y="240" width="12" height="14" rx="1"/>
    <rect x="42" y="270" width="12" height="14" rx="1"/><rect x="82" y="270" width="12" height="14" rx="1"/>
    <rect x="42" y="300" width="12" height="14" rx="1"/><rect x="62" y="300" width="12" height="14" rx="1"/>
    <rect x="62" y="340" width="12" height="14" rx="1"/><rect x="82" y="340" width="12" height="14" rx="1"/>
    <!-- Building 2 -->
    <rect x="135" y="200" width="14" height="16" rx="1"/><rect x="160" y="200" width="14" height="16" rx="1"/><rect x="185" y="200" width="14" height="16" rx="1"/>
    <rect x="135" y="235" width="14" height="16" rx="1"/><rect x="185" y="235" width="14" height="16" rx="1"/>
    <rect x="160" y="270" width="14" height="16" rx="1"/><rect x="135" y="270" width="14" height="16" rx="1"/>
    <rect x="135" y="310" width="14" height="16" rx="1"/><rect x="160" y="310" width="14" height="16" rx="1"/><rect x="185" y="310" width="14" height="16" rx="1"/>
    <rect x="160" y="350" width="14" height="16" rx="1"/>
    <!-- Building 3 -->
    <rect x="252" y="260" width="11" height="13" rx="1"/><rect x="272" y="260" width="11" height="13" rx="1"/><rect x="292" y="260" width="11" height="13" rx="1"/>
    <rect x="252" y="290" width="11" height="13" rx="1"/><rect x="292" y="290" width="11" height="13" rx="1"/>
    <rect x="272" y="330" width="11" height="13" rx="1"/>
    <!-- Building 4 -->
    <rect x="345" y="220" width="13" height="15" rx="1"/><rect x="370" y="220" width="13" height="15" rx="1"/><rect x="395" y="220" width="13" height="15" rx="1"/>
    <rect x="345" y="255" width="13" height="15" rx="1"/><rect x="395" y="255" width="13" height="15" rx="1"/>
    <rect x="370" y="290" width="13" height="15" rx="1"/><rect x="345" y="290" width="13" height="15" rx="1"/>
    <rect x="370" y="330" width="13" height="15" rx="1"/><rect x="395" y="330" width="13" height="15" rx="1"/>
    <!-- Building 5 -->
    <rect x="515" y="230" width="12" height="14" rx="1"/><rect x="540" y="230" width="12" height="14" rx="1"/><rect x="565" y="230" width="12" height="14" rx="1"/>
    <rect x="515" y="265" width="12" height="14" rx="1"/><rect x="565" y="265" width="12" height="14" rx="1"/>
    <rect x="540" y="300" width="12" height="14" rx="1"/>
    <rect x="515" y="340" width="12" height="14" rx="1"/><rect x="540" y="340" width="12" height="14" rx="1"/>
    <!-- Building 6 -->
    <rect x="612" y="260" width="11" height="13" rx="1"/><rect x="632" y="260" width="11" height="13" rx="1"/><rect x="652" y="260" width="11" height="13" rx="1"/>
    <rect x="612" y="295" width="11" height="13" rx="1"/><rect x="652" y="295" width="11" height="13" rx="1"/>
    <rect x="632" y="340" width="11" height="13" rx="1"/>
    <!-- Building 7 -->
    <rect x="715" y="210" width="13" height="15" rx="1"/><rect x="740" y="210" width="13" height="15" rx="1"/><rect x="765" y="210" width="13" height="15" rx="1"/>
    <rect x="715" y="250" width="13" height="15" rx="1"/><rect x="765" y="250" width="13" height="15" rx="1"/>
    <rect x="740" y="290" width="13" height="15" rx="1"/><rect x="715" y="290" width="13" height="15" rx="1"/>
    <rect x="740" y="330" width="13" height="15" rx="1"/><rect x="765" y="330" width="13" height="15" rx="1"/>
    <!-- Building 8 -->
    <rect x="822" y="250" width="12" height="14" rx="1"/><rect x="845" y="250" width="12" height="14" rx="1"/><rect x="868" y="250" width="12" height="14" rx="1"/>
    <rect x="822" y="285" width="12" height="14" rx="1"/><rect x="868" y="285" width="12" height="14" rx="1"/>
    <rect x="845" y="325" width="12" height="14" rx="1"/>
  </g>

  <!-- Rooftop snow caps -->
  <g fill="#d8e8f4" opacity="0.8">
    <path d="M28,220 Q70,212 112,220 L110,224 L30,224Z"/>
    <path d="M118,180 Q170,170 222,180 L220,185 L120,185Z"/>
    <path d="M238,240 Q275,232 312,240 L310,244 L240,244Z"/>
    <path d="M328,200 Q375,190 422,200 L420,205 L330,205Z"/>
    <path d="M498,210 Q542,202 587,210 L585,215 L500,215Z"/>
    <path d="M598,240 Q636,232 677,240 L675,244 L600,244Z"/>
    <path d="M698,190 Q748,180 797,190 L795,195 L700,195Z"/>
    <path d="M808,230 Q854,222 902,230 L900,235 L810,235Z"/>
  </g>

  <!-- Sidewalk -->
  <rect x="0" y="410" width="900" height="18" fill="#6a7078"/>
  <rect x="0" y="410" width="900" height="3" fill="#78808a" opacity="0.5"/>

  <!-- Street -->
  <rect x="0" y="428" width="900" height="120" fill="url(#streetGrad)"/>

  <!-- Street center line -->
  <g stroke="#aab0b8" stroke-width="2.5" stroke-dasharray="30 20" opacity="0.4">
    <line x1="0" y1="488" x2="900" y2="488"/>
  </g>

  <!-- Sidewalk bottom -->
  <rect x="0" y="548" width="900" height="18" fill="#6a7078"/>
  <rect x="0" y="548" width="900" height="3" fill="#78808a" opacity="0.5"/>

  <!-- Bottom ground -->
  <rect x="0" y="566" width="900" height="34" fill="#4a5560"/>

  <!-- Snow on ground surfaces -->
  <g fill="#ccdbe8" opacity="0.5">
    <rect x="0" y="410" width="900" height="4" rx="1"/>
    <rect x="0" y="548" width="900" height="4" rx="1"/>
    <rect x="0" y="566" width="900" height="3" rx="1"/>
  </g>
  <!-- Patchy snow on street -->
  <g fill="#b8c8d8" opacity="0.15">
    <ellipse cx="120" cy="460" rx="45" ry="5"/>
    <ellipse cx="380" cy="475" rx="55" ry="6"/>
    <ellipse cx="650" cy="500" rx="40" ry="5"/>
    <ellipse cx="820" cy="450" rx="35" ry="4"/>
  </g>

  <!-- Street lamp 1 -->
  <g>
    <rect x="148" y="340" width="5" height="80" rx="2" fill="#555"/>
    <path d="M140,340 Q150,330 160,340" stroke="#555" stroke-width="4" fill="none"/>
    <ellipse cx="150" cy="334" rx="6" ry="3" fill="#ffe888"/>
    <ellipse cx="150" cy="380" rx="25" ry="50" fill="url(#lampGlow)" opacity="0.35"/>
  </g>

  <!-- Street lamp 2 -->
  <g>
    <rect x="448" y="340" width="5" height="80" rx="2" fill="#555"/>
    <path d="M440,340 Q450,330 460,340" stroke="#555" stroke-width="4" fill="none"/>
    <ellipse cx="450" cy="334" rx="6" ry="3" fill="#ffe888"/>
    <ellipse cx="450" cy="380" rx="25" ry="50" fill="url(#lampGlow)" opacity="0.35"/>
  </g>

  <!-- Street lamp 3 -->
  <g>
    <rect x="748" y="340" width="5" height="80" rx="2" fill="#555"/>
    <path d="M740,340 Q750,330 760,340" stroke="#555" stroke-width="4" fill="none"/>
    <ellipse cx="750" cy="334" rx="6" ry="3" fill="#ffe888"/>
    <ellipse cx="750" cy="380" rx="25" ry="50" fill="url(#lampGlow)" opacity="0.35"/>
  </g>

  <!-- Bare trees -->
  <g stroke="#4a3a30" stroke-width="2.5" stroke-linecap="round" fill="none">
    <!-- Tree 1 -->
    <line x1="60" y1="410" x2="60" y2="360"/>
    <line x1="60" y1="380" x2="45" y2="355"/><line x1="45" y1="355" x2="38" y2="340"/>
    <line x1="60" y1="370" x2="78" y2="348"/><line x1="78" y1="348" x2="85" y2="335"/>
    <line x1="60" y1="362" x2="52" y2="342"/>
    <!-- Tree 2 -->
    <line x1="860" y1="410" x2="860" y2="355"/>
    <line x1="860" y1="375" x2="845" y2="350"/><line x1="845" y1="350" x2="838" y2="335"/>
    <line x1="860" y1="368" x2="878" y2="342"/><line x1="878" y1="342" x2="882" y2="328"/>
    <line x1="860" y1="358" x2="852" y2="338"/>
  </g>

  <!-- ============ COLD AIR FLOW WAVES ============ -->
  <!-- Flowing cold air streams across the street -->
  <g opacity="0.3" fill="none" stroke-linecap="round">
    <!-- Stream 1 -->
    <path d="M-60,390 C60,378 140,402 260,386 C380,370 460,398 580,382 C700,366 780,392 960,376"
          stroke="#b0d4ee" stroke-width="8" filter="url(#blur5)">
      <animate attributeName="d"
        values="M-60,390 C60,378 140,402 260,386 C380,370 460,398 580,382 C700,366 780,392 960,376;
                M-60,394 C60,374 140,406 260,390 C380,374 460,394 580,386 C700,370 780,396 960,380;
                M-60,390 C60,378 140,402 260,386 C380,370 460,398 580,382 C700,366 780,392 960,376"
        dur="4s" repeatCount="indefinite"/>
      <animateTransform attributeName="transform" type="translate" values="0 0;-80 0;0 0" dur="6s" repeatCount="indefinite"/>
    </path>
    <!-- Stream 2 -->
    <path d="M-40,440 C80,425 180,455 320,438 C440,422 540,452 680,435 C790,422 860,448 960,432"
          stroke="#a0c8e4" stroke-width="10" filter="url(#blur8)">
      <animate attributeName="d"
        values="M-40,440 C80,425 180,455 320,438 C440,422 540,452 680,435 C790,422 860,448 960,432;
                M-40,445 C80,420 180,458 320,442 C440,426 540,448 680,440 C790,426 860,452 960,436;
                M-40,440 C80,425 180,455 320,438 C440,422 540,452 680,435 C790,422 860,448 960,432"
        dur="3.5s" repeatCount="indefinite"/>
      <animateTransform attributeName="transform" type="translate" values="0 0;-100 0;0 0" dur="5s" repeatCount="indefinite"/>
    </path>
    <!-- Stream 3 -->
    <path d="M-50,490 C70,475 160,505 300,488 C420,472 520,502 660,485 C770,472 850,498 960,482"
          stroke="#90bee0" stroke-width="9" filter="url(#blur8)">
      <animate attributeName="d"
        values="M-50,490 C70,475 160,505 300,488 C420,472 520,502 660,485 C770,472 850,498 960,482;
                M-50,495 C70,478 160,500 300,492 C420,476 520,498 660,490 C770,476 850,502 960,486;
                M-50,490 C70,475 160,505 300,488 C420,472 520,502 660,485 C770,472 850,498 960,482"
        dur="3.8s" repeatCount="indefinite"/>
      <animateTransform attributeName="transform" type="translate" values="0 0;-90 0;0 0" dur="5.5s" repeatCount="indefinite"/>
    </path>
    <!-- Stream 4 - upper -->
    <path d="M-30,360 C90,348 200,372 340,356 C460,342 560,368 700,352 C810,340 870,362 960,348"
          stroke="#b8daf0" stroke-width="6" filter="url(#blur5)">
      <animate attributeName="d"
        values="M-30,360 C90,348 200,372 340,356 C460,342 560,368 700,352 C810,340 870,362 960,348;
                M-30,365 C90,344 200,376 340,360 C460,346 560,364 700,356 C810,344 870,366 960,352;
                M-30,360 C90,348 200,372 340,356 C460,342 560,368 700,352 C810,340 870,362 960,348"
        dur="4.5s" repeatCount="indefinite"/>
      <animateTransform attributeName="transform" type="translate" values="0 0;-70 0;0 0" dur="7s" repeatCount="indefinite"/>
    </path>
    <!-- Stream 5 - lower -->
    <path d="M-60,530 C80,518 180,542 330,526 C460,512 560,538 700,522 C810,510 870,534 960,520"
          stroke="#a4cce8" stroke-width="7" filter="url(#blur5)">
      <animate attributeName="d"
        values="M-60,530 C80,518 180,542 330,526 C460,512 560,538 700,522 C810,510 870,534 960,520;
                M-60,534 C80,514 180,546 330,530 C460,516 560,534 700,526 C810,514 870,538 960,524;
                M-60,530 C80,518 180,542 330,526 C460,512 560,538 700,522 C810,510 870,534 960,520"
        dur="3.2s" repeatCount="indefinite"/>
      <animateTransform attributeName="transform" type="translate" values="0 0;-85 0;0 0" dur="4.8s" repeatCount="indefinite"/>
    </path>
  </g>

  <!-- Cold air dash streaks blowing across -->
  <g stroke="#c0dff0" stroke-width="1.8" stroke-linecap="round" opacity="0.25">
    <line x1="0" y1="400" x2="40" y2="398"><animate attributeName="x1" values="-50;950" dur="4s" repeatCount="indefinite"/><animate attributeName="x2" values="-10;990" dur="4s" repeatCount="indefinite"/></line>
    <line x1="0" y1="430" x2="35" y2="428"><animate attributeName="x1" values="-80;920" dur="3.6s" repeatCount="indefinite"/><animate attributeName="x2" values="-45;955" dur="3.6s" repeatCount="indefinite"/></line>
    <line x1="0" y1="460" x2="50" y2="457"><animate attributeName="x1" values="-120;880" dur="4.4s" repeatCount="indefinite"/><animate attributeName="x2" values="-70;930" dur="4.4s" repeatCount="indefinite"/></line>
    <line x1="0" y1="485" x2="45" y2="483"><animate attributeName="x1" values="-30;970" dur="3.2s" repeatCount="indefinite"/><animate attributeName="x2" values="15;1015" dur="3.2s" repeatCount="indefinite"/></line>
    <line x1="0" y1="510" x2="38" y2="508"><animate attributeName="x1" values="-100;900" dur="3.8s" repeatCount="indefinite"/><animate attributeName="x2" values="-62;938" dur="3.8s" repeatCount="indefinite"/></line>
    <line x1="0" y1="540" x2="42" y2="538"><animate attributeName="x1" values="-60;940" dur="4.2s" repeatCount="indefinite"/><animate attributeName="x2" values="-18;982" dur="4.2s" repeatCount="indefinite"/></line>
    <line x1="0" y1="370" x2="30" y2="368"><animate attributeName="x1" values="-40;960" dur="5s" repeatCount="indefinite"/><animate attributeName="x2" values="-10;990" dur="5s" repeatCount="indefinite"/></line>
    <line x1="0" y1="350" x2="28" y2="349"><animate attributeName="x1" values="-90;910" dur="5.5s" repeatCount="indefinite"/><animate attributeName="x2" values="-62;938" dur="5.5s" repeatCount="indefinite"/></line>
  </g>

  <!-- Frost overlay on edges -->
  <rect x="0" y="0" width="900" height="50" fill="#c8e0f0" opacity="0.06" filter="url(#frostBlur)"/>
  <rect x="0" y="550" width="900" height="50" fill="#c8e0f0" opacity="0.08" filter="url(#frostBlur)"/>

  <!-- ============ SNOWFLAKES ============ -->
  <g fill="#e8f0f8">
    <!-- Snowflake group 1 -->
    <circle cx="45" cy="0" r="2.5" opacity="0.8">
      <animate attributeName="cy" values="-10;610" dur="9s" repeatCount="indefinite"/>
      <animate attributeName="cx" values="45;25" dur="9s" repeatCount="indefinite"/>
      <animate attributeName="opacity" values="0.8;0.6;0.8" dur="3s" repeatCount="indefinite"/>
    </circle>
    <circle cx="130" cy="0" r="2" opacity="0.7">
      <animate attributeName="cy" values="-30;610" dur="11s" repeatCount="indefinite"/>
      <animate attributeName="cx" values="130;105" dur="11s" repeatCount="indefinite"/>
    </circle>
    <circle cx="210" cy="0" r="3" opacity="0.6">
      <animate attributeName="cy" values="-50;610" dur="8s" repeatCount="indefinite"/>
      <animate attributeName="cx" values="210;185" dur="8s" repeatCount="indefinite"/>
    </circle>
    <circle cx="290" cy="0" r="1.8" opacity="0.75">
      <animate attributeName="cy" values="-80;610" dur="12s" repeatCount="indefinite"/>
      <animate attributeName="cx" values="290;260" dur="12s" repeatCount="indefinite"/>
    </circle>
    <circle cx="365" cy="0" r="2.5" opacity="0.65">
      <animate attributeName="cy" values="-20;610" dur="10s" repeatCount="indefinite"/>
      <animate attributeName="cx" values="365;340" dur="10s" repeatCount="indefinite"/>
    </circle>
    <circle cx="440" cy="0" r="2" opacity="0.8">
      <animate attributeName="cy" values="-60;610" dur="9.5s" repeatCount="indefinite"/>
      <animate attributeName="cx" values="440;415" dur="9.5s" repeatCount="indefinite"/>
    </circle>
    <circle cx="520" cy="0" r="2.8" opacity="0.55">
      <animate attributeName="cy" values="-40;610" dur="8.5s" repeatCount="indefinite"/>
      <animate attributeName="cx" values="520;492" dur="8.5s" repeatCount="indefinite"/>
    </circle>
    <circle cx="600" cy="0" r="1.5" opacity="0.7">
      <animate attributeName="cy" values="-90;610" dur="13s" repeatCount="indefinite"/>
      <animate attributeName="cx" values="600;570" dur="13s" repeatCount="indefinite"/>
    </circle>
    <circle cx="680" cy="0" r="2.2" opacity="0.75">
      <animate attributeName="cy" values="-15;610" dur="10.5s" repeatCount="indefinite"/>
      <animate attributeName="cx" values="680;652" dur="10.5s" repeatCount="indefinite"/>
    </circle>
    <circle cx="760" cy="0" r="2.5" opacity="0.6">
      <animate attributeName="cy" values="-70;610" dur="9s" repeatCount="indefinite"/>
      <animate attributeName="cx" values="760;735" dur="9s" repeatCount="indefinite"/>
    </circle>
    <circle cx="840" cy="0" r="1.8" opacity="0.8">
      <animate attributeName="cy" values="-35;610" dur="11.5s" repeatCount="indefinite"/>
      <animate attributeName="cx" values="840;812" dur="11.5s" repeatCount="indefinite"/>
    </circle>

    <!-- Snowflake group 2 (offset timing) -->
    <circle cx="80" cy="0" r="2" opacity="0.7">
      <animate attributeName="cy" values="-300;610" dur="10s" repeatCount="indefinite"/>
      <animate attributeName="cx" values="80;55" dur="10s" repeatCount="indefinite"/>
    </circle>
    <circle cx="175" cy="0" r="2.8" opacity="0.55">
      <animate attributeName="cy" values="-250;610" dur="8.8s" repeatCount="indefinite"/>
      <animate attributeName="cx" values="175;148" dur="8.8s" repeatCount="indefinite"/>
    </circle>
    <circle cx="255" cy="0" r="1.5" opacity="0.8">
      <animate attributeName="cy" values="-380;610" dur="12s" repeatCount="indefinite"/>
      <animate attributeName="cx" values="255;228" dur="12s" repeatCount="indefinite"/>
    </circle>
    <circle cx="340" cy="0" r="2.2" opacity="0.65">
      <animate attributeName="cy" values="-200;610" dur="9.2s" repeatCount="indefinite"/>
      <animate attributeName="cx" values="340;312" dur="9.2s" repeatCount="indefinite"/>
    </circle>
    <circle cx="410" cy="0" r="3" opacity="0.5">
      <animate attributeName="cy" values="-150;610" dur="7.8s" repeatCount="indefinite"/>
      <animate attributeName="cx" values="410;385" dur="7.8s" repeatCount="indefinite"/>
    </circle>
    <circle cx="485" cy="0" r="1.8" opacity="0.75">
      <animate attributeName="cy" values="-350;610" dur="11s" repeatCount="indefinite"/>
      <animate attributeName="cx" values="485;458" dur="11s" repeatCount="indefinite"/>
    </circle>
    <circle cx="565" cy="0" r="2.5" opacity="0.6">
      <animate attributeName="cy" values="-280;610" dur="9.8s" repeatCount="indefinite"/>
      <animate attributeName="cx" values="565;540" dur="9.8s" repeatCount="indefinite"/>
    </circle>
    <circle cx="640" cy="0" r="2" opacity="0.7">
      <animate attributeName="cy" values="-420;610" dur="12.5s" repeatCount="indefinite"/>
      <animate attributeName="cx" values="640;612" dur="12.5s" repeatCount="indefinite"/>
    </circle>
    <circle cx="720" cy="0" r="2.8" opacity="0.55">
      <animate attributeName="cy" values="-180;610" dur="8.2s" repeatCount="indefinite"/>
      <animate attributeName="cx" values="720;695" dur="8.2s" repeatCount="indefinite"/>
    </circle>
    <circle cx="805" cy="0" r="1.5" opacity="0.8">
      <animate attributeName="cy" values="-320;610" dur="10.8s" repeatCount="indefinite"/>
      <animate attributeName="cx" values="805;778" dur="10.8s" repeatCount="indefinite"/>
    </circle>
    <circle cx="880" cy="0" r="2.2" opacity="0.65">
      <animate attributeName="cy" values="-240;610" dur="9.6s" repeatCount="indefinite"/>
      <animate attributeName="cx" values="880;852" dur="9.6s" repeatCount="indefinite"/>
    </circle>

    <!-- Snowflake group 3 (more offset) -->
    <circle cx="25" cy="0" r="1.8" opacity="0.7">
      <animate attributeName="cy" values="-500;610" dur="11.2s" repeatCount="indefinite"/>
      <animate attributeName="cx" values="25;2" dur="11.2s" repeatCount="indefinite"/>
    </circle>
    <circle cx="110" cy="0" r="2.5" opacity="0.6">
      <animate attributeName="cy" values="-550;610" dur="9.4s" repeatCount="indefinite"/>
      <animate attributeName="cx" values="110;85" dur="9.4s" repeatCount="indefinite"/>
    </circle>
    <circle cx="195" cy="0" r="2" opacity="0.75">
      <animate attributeName="cy" values="-480;610" dur="10.2s" repeatCount="indefinite"/>
      <animate attributeName="cx" values="195;170" dur="10.2s" repeatCount="indefinite"/>
    </circle>
    <circle cx="310" cy="0" r="3" opacity="0.5">
      <animate attributeName="cy" values="-600;610" dur="8s" repeatCount="indefinite"/>
      <animate attributeName="cx" values="310;282" dur="8s" repeatCount="indefinite"/>
    </circle>
    <circle cx="460" cy="0" r="1.5" opacity="0.8">
      <animate attributeName="cy" values="-530;610" dur="12.8s" repeatCount="indefinite"/>
      <animate attributeName="cx" values="460;435" dur="12.8s" repeatCount="indefinite"/>
    </circle>
    <circle cx="550" cy="0" r="2.2" opacity="0.65">
      <animate attributeName="cy" values="-580;610" dur="10.6s" repeatCount="indefinite"/>
      <animate attributeName="cx" values="550;522" dur="10.6s" repeatCount="indefinite"/>
    </circle>
    <circle cx="670" cy="0" r="2.8" opacity="0.55">
      <animate attributeName="cy" values="-460;610" dur="8.6s" repeatCount="indefinite"/>
      <animate attributeName="cx" values="670;645" dur="8.6s" repeatCount="indefinite"/>
    </circle>
    <circle cx="780" cy="0" r="2" opacity="0.7">
      <animate attributeName="cy" values="-520;610" dur="11.8s" repeatCount="indefinite"/>
      <animate attributeName="cx" values="780;755" dur="11.8s" repeatCount="indefinite"/>
    </circle>
    <circle cx="870" cy="0" r="2.5" opacity="0.6">
      <animate attributeName="cy" values="-440;610" dur="9s" repeatCount="indefinite"/>
      <animate attributeName="cx" values="870;848" dur="9s" repeatCount="indefinite"/>
    </circle>
  </g>

  <!-- Overall cold blue tint overlay -->
  <rect x="0" y="0" width="900" height="600" fill="#8ab8e0" opacity="0.06"/>

  <!-- Subtle pulsing cold atmosphere -->
  <rect x="0" y="0" width="900" height="600" fill="#a0d0f0" opacity="0.04">
    <animate attributeName="opacity" values="0.03;0.07;0.03" dur="5s" repeatCount="indefinite"/>
  </rect>
</svg>
