<svg width="100%" height="100%" viewBox="0 0 800 600" preserveAspectRatio="xMidYMid meet" xmlns="http://www.w3.org/2000/svg">
  <defs>
    <linearGradient id="skyGrad" x1="0" y1="0" x2="0" y2="1">
      <stop offset="0%" stop-color="#273341"/>
      <stop offset="55%" stop-color="#4c6274"/>
      <stop offset="100%" stop-color="#748a99"/>
    </linearGradient>

    <linearGradient id="grassGrad" x1="0" y1="0" x2="0" y2="1">
      <stop offset="0%" stop-color="#4f8235"/>
      <stop offset="100%" stop-color="#2d5f24"/>
    </linearGradient>

    <linearGradient id="roadGrad" x1="0" y1="0" x2="0" y2="1">
      <stop offset="0%" stop-color="#59626c"/>
      <stop offset="50%" stop-color="#434a53"/>
      <stop offset="100%" stop-color="#343941"/>
    </linearGradient>

    <linearGradient id="sidewalkGrad" x1="0" y1="0" x2="0" y2="1">
      <stop offset="0%" stop-color="#7c838a"/>
      <stop offset="100%" stop-color="#686f76"/>
    </linearGradient>

    <radialGradient id="puddleGrad" cx="0.5" cy="0.5" r="0.5">
      <stop offset="0%" stop-color="#8da5b7" stop-opacity="0.45"/>
      <stop offset="70%" stop-color="#6a8193" stop-opacity="0.18"/>
      <stop offset="100%" stop-color="#567083" stop-opacity="0"/>
    </radialGradient>

    <radialGradient id="headlightGlow" cx="0.5" cy="0.5" r="0.5">
      <stop offset="0%" stop-color="#fff1b4" stop-opacity="0.9"/>
      <stop offset="100%" stop-color="#fff1b4" stop-opacity="0"/>
    </radialGradient>

    <filter id="blurSoft" x="-20%" y="-20%" width="140%" height="140%">
      <feGaussianBlur stdDeviation="4"/>
    </filter>

    <filter id="blurRain" x="-20%" y="-20%" width="140%" height="140%">
      <feGaussianBlur stdDeviation="0.8"/>
    </filter>

    <g id="tree">
      <rect x="-4" y="0" width="8" height="34" rx="2" fill="#52361f"/>
      <ellipse cx="0" cy="-8" rx="20" ry="18" fill="#2a6d1d"/>
      <ellipse cx="-11" cy="-3" rx="13" ry="12" fill="#246518"/>
      <ellipse cx="12" cy="-4" rx="14" ry="12" fill="#1f5c16"/>
      <ellipse cx="0" cy="-17" rx="15" ry="11" fill="#347a24"/>
    </g>

    <g id="carSymbol">
      <rect x="-31" y="-10" width="62" height="18" rx="4" fill="currentColor"/>
      <path d="M-18,-10 h30 l10,-12 h-44 z" fill="currentColor"/>
      <rect x="-15" y="-18" width="12" height="7" rx="1.5" fill="#b4d0df" opacity="0.55"/>
      <rect x="2" y="-18" width="13" height="7" rx="1.5" fill="#b4d0df" opacity="0.55"/>
      <circle cx="-18" cy="10" r="5.5" fill="#20242a"/>
      <circle cx="-18" cy="10" r="2.5" fill="#4c535a"/>
      <circle cx="18" cy="10" r="5.5" fill="#20242a"/>
      <circle cx="18" cy="10" r="2.5" fill="#4c535a"/>
      <circle cx="29" cy="-1" r="1.8" fill="#f6efb4" opacity="0.9"/>
      <circle cx="-29" cy="-1" r="1.5" fill="#c33" opacity="0.45"/>
    </g>

    <g id="rainTile">
      <line x1="8" y1="0" x2="-10" y2="56"/>
      <line x1="26" y1="20" x2="8" y2="76"/>
      <line x1="42" y1="4" x2="23" y2="62"/>
      <line x1="58" y1="30" x2="40" y2="86"/>
      <line x1="74" y1="10" x2="56" y2="68"/>
      <line x1="90" y1="24" x2="71" y2="82"/>
      <line x1="106" y1="0" x2="88" y2="58"/>
      <line x1="122" y1="18" x2="103" y2="76"/>
      <line x1="138" y1="7" x2="120" y2="65"/>
      <line x1="154" y1="26" x2="135" y2="84"/>
      <line x1="18" y1="80" x2="0" y2="138"/>
      <line x1="52" y1="72" x2="34" y2="130"/>
      <line x1="96" y1="84" x2="78" y2="142"/>
      <line x1="142" y1="74" x2="124" y2="132"/>
    </g>

    <g id="rainGrid">
      <use href="#rainTile" transform="translate(-40 -150)"/>
      <use href="#rainTile" transform="translate(120 -150)"/>
      <use href="#rainTile" transform="translate(280 -150)"/>
      <use href="#rainTile" transform="translate(440 -150)"/>
      <use href="#rainTile" transform="translate(600 -150)"/>
      <use href="#rainTile" transform="translate(760 -150)"/>

      <use href="#rainTile" transform="translate(-40 0)"/>
      <use href="#rainTile" transform="translate(120 0)"/>
      <use href="#rainTile" transform="translate(280 0)"/>
      <use href="#rainTile" transform="translate(440 0)"/>
      <use href="#rainTile" transform="translate(600 0)"/>
      <use href="#rainTile" transform="translate(760 0)"/>

      <use href="#rainTile" transform="translate(-40 150)"/>
      <use href="#rainTile" transform="translate(120 150)"/>
      <use href="#rainTile" transform="translate(280 150)"/>
      <use href="#rainTile" transform="translate(440 150)"/>
      <use href="#rainTile" transform="translate(600 150)"/>
      <use href="#rainTile" transform="translate(760 150)"/>

      <use href="#rainTile" transform="translate(-40 300)"/>
      <use href="#rainTile" transform="translate(120 300)"/>
      <use href="#rainTile" transform="translate(280 300)"/>
      <use href="#rainTile" transform="translate(440 300)"/>
      <use href="#rainTile" transform="translate(600 300)"/>
      <use href="#rainTile" transform="translate(760 300)"/>

      <use href="#rainTile" transform="translate(-40 450)"/>
      <use href="#rainTile" transform="translate(120 450)"/>
      <use href="#rainTile" transform="translate(280 450)"/>
      <use href="#rainTile" transform="translate(440 450)"/>
      <use href="#rainTile" transform="translate(600 450)"/>
      <use href="#rainTile" transform="translate(760 450)"/>

      <use href="#rainTile" transform="translate(-40 600)"/>
      <use href="#rainTile" transform="translate(120 600)"/>
      <use href="#rainTile" transform="translate(280 600)"/>
      <use href="#rainTile" transform="translate(440 600)"/>
      <use href="#rainTile" transform="translate(600 600)"/>
      <use href="#rainTile" transform="translate(760 600)"/>
    </g>
  </defs>

  <rect x="0" y="0" width="800" height="600" fill="url(#skyGrad)"/>

  <g opacity="0.45">
    <path d="M0,205 C120,185 210,210 320,192 C430,175 560,205 680,188 C740,179 776,184 800,187 L800,240 L0,240 Z" fill="#4c5d6c"/>
    <g fill="#3f4b56" opacity="0.75">
      <rect x="18" y="165" width="26" height="52"/>
      <rect x="48" y="154" width="34" height="63"/>
      <rect x="88" y="170" width="24" height="47"/>
      <rect x="710" y="160" width="30" height="57"/>
      <rect x="744" y="172" width="20" height="45"/>
      <rect x="768" y="150" width="28" height="67"/>
    </g>
  </g>

  <g opacity="0.96">
    <g fill="#33404a">
      <ellipse cx="110" cy="72" rx="100" ry="34"/>
      <ellipse cx="68" cy="67" rx="62" ry="24"/>
      <ellipse cx="154" cy="75" rx="68" ry="26"/>
      <ellipse cx="110" cy="56" rx="74" ry="20"/>
      <animateTransform attributeName="transform" type="translate" values="0 0;14 0;0 0" dur="12s" repeatCount="indefinite"/>
    </g>
    <g fill="#2b3741">
      <ellipse cx="360" cy="58" rx="132" ry="38"/>
      <ellipse cx="312" cy="60" rx="82" ry="28"/>
      <ellipse cx="414" cy="63" rx="90" ry="29"/>
      <ellipse cx="360" cy="41" rx="98" ry="22"/>
      <animateTransform attributeName="transform" type="translate" values="0 0;-12 0;0 0" dur="15s" repeatCount="indefinite"/>
    </g>
    <g fill="#36424d">
      <ellipse cx="650" cy="66" rx="126" ry="37"/>
      <ellipse cx="606" cy="62" rx="74" ry="27"/>
      <ellipse cx="705" cy="68" rx="78" ry="29"/>
      <ellipse cx="650" cy="48" rx="92" ry="21"/>
      <animateTransform attributeName="transform" type="translate" values="0 0;10 0;0 0" dur="13s" repeatCount="indefinite"/>
    </g>
    <g fill="#2a343d">
      <ellipse cx="250" cy="110" rx="118" ry="32"/>
      <ellipse cx="560" cy="114" rx="138" ry="34"/>
      <ellipse cx="760" cy="100" rx="70" ry="22"/>
    </g>
  </g>

  <g stroke="#8ea9bc" stroke-width="1" stroke-linecap="round" opacity="0.18">
    <g>
      <animateTransform attributeName="transform" type="translate" values="0 0;18 150" dur="0.95s" repeatCount="indefinite"/>
      <use href="#rainGrid"/>
    </g>
  </g>

  <rect x="0" y="220" width="800" height="170" fill="url(#grassGrad)"/>

  <path d="M0,286 C96,268 158,290 230,282 C312,272 372,294 446,286 C526,278 614,292 700,281 C744,276 780,278 800,279 L800,304 L0,304 Z" fill="#8b7b63" opacity="0.36"/>
  <path d="M0,314 C110,300 180,320 250,314 C336,307 382,320 460,316 C540,311 620,324 800,316 L800,326 L0,326 Z" fill="#5f7d4a" opacity="0.22"/>

  <g opacity="0.92">
    <use href="#tree" transform="translate(64 250) scale(0.95)"/>
    <use href="#tree" transform="translate(150 240) scale(1.06)"/>
    <use href="#tree" transform="translate(278 246) scale(0.9)"/>
    <use href="#tree" transform="translate(544 243) scale(0.98)"/>
    <use href="#tree" transform="translate(676 238) scale(1.08)"/>
    <use href="#tree" transform="translate(770 248) scale(0.92)"/>
  </g>

  <g fill="#2b6a20" opacity="0.78">
    <ellipse cx="115" cy="296" rx="18" ry="10"/>
    <ellipse cx="218" cy="291" rx="15" ry="9"/>
    <ellipse cx="482" cy="294" rx="16" ry="9"/>
    <ellipse cx="618" cy="290" rx="18" ry="10"/>
  </g>

  <g transform="translate(132 285)">
    <line x1="-24" y1="0" x2="-11" y2="-45" stroke="#68717a" stroke-width="3"/>
    <line x1="24" y1="0" x2="11" y2="-45" stroke="#68717a" stroke-width="3"/>
    <line x1="-11" y1="-45" x2="11" y2="-45" stroke="#68717a" stroke-width="4"/>
    <g>
      <animateTransform attributeName="transform" type="rotate" values="-13 0 -45;13 0 -45;-13 0 -45" dur="2.1s" repeatCount="indefinite"/>
      <line x1="-4" y1="-44" x2="-6" y2="-16" stroke="#89929b" stroke-width="1.2"/>
      <line x1="4" y1="-44" x2="6" y2="-16" stroke="#89929b" stroke-width="1.2"/>
      <rect x="-7" y="-16" width="14" height="4" rx="1.5" fill="#5c3a20"/>
      <circle cx="0" cy="-29" r="4.5" fill="#f0c7a3"/>
      <rect x="-3.6" y="-24" width="7.2" height="10" rx="2" fill="#d94f95"/>
      <line x1="-3" y1="-20" x2="-7" y2="-15" stroke="#d94f95" stroke-width="2" stroke-linecap="round"/>
      <line x1="3" y1="-20" x2="7" y2="-15" stroke="#d94f95" stroke-width="2" stroke-linecap="round"/>
    </g>
  </g>

  <g transform="translate(430 279)">
    <rect x="-20" y="-11" width="40" height="4" rx="1.5" fill="#734b28"/>
    <rect x="-20" y="-4" width="40" height="4" rx="1.5" fill="#734b28"/>
    <rect x="-17" y="0" width="3" height="11" fill="#5b371d"/>
    <rect x="14" y="0" width="3" height="11" fill="#5b371d"/>
    <rect x="-22" y="-15" width="44" height="4" rx="1.5" fill="#83552f"/>
  </g>

  <g transform="translate(706 290)">
    <line x1="-18" y1="0" x2="-9" y2="-34" stroke="#d25445" stroke-width="3"/>
    <line x1="6" y1="0" x2="-9" y2="-34" stroke="#d25445" stroke-width="3"/>
    <rect x="-15" y="-36" width="12" height="5" rx="1.2" fill="#e46857"/>
    <path d="M-9,-31 C-7,-18 2,-8 10,0" fill="none" stroke="#e46857" stroke-width="4"/>
  </g>

  <g transform="translate(236 346)">
    <animateTransform attributeName="transform" type="translate" values="236 346;246 342;236 346" dur="1.1s" repeatCount="indefinite"/>
    <path d="M-2,-40 L-2,-27" stroke="#42464d" stroke-width="1.6"/>
    <path d="M-18,-27 Q-2,-42 14,-27" fill="#e14e4e" stroke="#bf3f3f" stroke-width="1.2"/>
    <circle cx="0" cy="-20" r="4.5" fill="#f0c7a3"/>
    <rect x="-4" y="-15" width="8" height="11" rx="2" fill="#2d84d4"/>
    <line x1="-4" y1="-10" x2="-10" y2="-4" stroke="#2d84d4" stroke-width="2.2" stroke-linecap="round"/>
    <line x1="4" y1="-11" x2="0" y2="-27" stroke="#2d84d4" stroke-width="2.2" stroke-linecap="round"/>
    <line x1="-2" y1="-4" x2="-5" y2="7" stroke="#2866a8" stroke-width="2.2" stroke-linecap="round"/>
    <line x1="2" y1="-4" x2="5" y2="7" stroke="#2866a8" stroke-width="2.2" stroke-linecap="round"/>
    <ellipse cx="-5" cy="8" rx="3.2" ry="2" fill="#d22d2d"/>
    <ellipse cx="5" cy="8" rx="3.2" ry="2" fill="#d22d2d"/>
  </g>

  <g transform="translate(390 348)">
    <g opacity="0">
      <animate attributeName="opacity" values="0;0;0.7;0.25;0;0" dur="1.7s" repeatCount="indefinite"/>
      <circle cx="-9" cy="8" r="2.4" fill="#87a3b7">
        <animate attributeName="cy" values="8;-2;8" dur="1.7s" repeatCount="indefinite"/>
        <animate attributeName="cx" values="-9;-14;-9" dur="1.7s" repeatCount="indefinite"/>
      </circle>
      <circle cx="9" cy="8" r="2.4" fill="#87a3b7">
        <animate attributeName="cy" values="8;-4;8" dur="1.7s" repeatCount="indefinite"/>
        <animate attributeName="cx" values="9;14;9" dur="1.7s" repeatCount="indefinite"/>
      </circle>
      <circle cx="0" cy="8" r="1.8" fill="#87a3b7">
        <animate attributeName="cy" values="8;-7;8" dur="1.7s" repeatCount="indefinite"/>
      </circle>
    </g>
    <g>
      <animateTransform attributeName="transform" type="translate" values="0 0;0 -11;0 0" dur="1.7s" repeatCount="indefinite"/>
      <circle cx="0" cy="-20" r="4.5" fill="#f0c7a3"/>
      <ellipse cx="0" cy="-24" rx="6.5" ry="2" fill="#e0c137"/>
      <rect x="-4.2" y="-27" width="8.4" height="4" rx="2" fill="#e0c137"/>
      <rect x="-4" y="-15" width="8" height="11" rx="2" fill="#31a655"/>
      <line x1="-4" y1="-11" x2="-10" y2="-18" stroke="#31a655" stroke-width="2.1" stroke-linecap="round"/>
      <line x1="4" y1="-11" x2="10" y2="-18" stroke="#31a655" stroke-width="2.1" stroke-linecap="round"/>
      <line x1="-2" y1="-4" x2="-4" y2="7" stroke="#227e40" stroke-width="2.1" stroke-linecap="round"/>
      <line x1="2" y1="-4" x2="4" y2="7" stroke="#227e40" stroke-width="2.1" stroke-linecap="round"/>
      <ellipse cx="-4" cy="8" rx="3" ry="2" fill="#d6bf22"/>
      <ellipse cx="4" cy="8" rx="3" ry="2" fill="#d6bf22"/>
    </g>
  </g>

  <g transform="translate(635 336)">
    <circle cx="0" cy="-18" r="4.3" fill="#f0c7a3"/>
    <rect x="-3.6" y="-14" width="7.2" height="10" rx="2" fill="#9b53d7"/>
    <line x1="-3.2" y1="-9" x2="-8" y2="-2" stroke="#9b53d7" stroke-width="2" stroke-linecap="round"/>
    <line x1="3.2" y1="-9" x2="8" y2="-4" stroke="#9b53d7" stroke-width="2" stroke-linecap="round"/>
    <line x1="-1.8" y1="-4" x2="-2.8" y2="7" stroke="#8041ba" stroke-width="2" stroke-linecap="round"/>
    <line x1="1.8" y1="-4" x2="2.8" y2="7" stroke="#8041ba" stroke-width="2" stroke-linecap="round"/>
    <ellipse cx="-2.8" cy="8" rx="2.8" ry="1.8" fill="#cc3737"/>
    <ellipse cx="2.8" cy="8" rx="2.8" ry="1.8" fill="#cc3737"/>
    <g>
      <animateTransform attributeName="transform" type="translate" values="0 0;5 0;0 0" dur="2.8s" repeatCount="indefinite"/>
      <ellipse cx="18" cy="10" rx="16" ry="4.5" fill="url(#puddleGrad)" opacity="0.9"/>
      <polygon points="12,9 23,9 26,13 10,13" fill="#f3f3ef"/>
      <polygon points="17,3 17,9 13,9" fill="#f3f3ef"/>
    </g>
  </g>

  <g stroke="#5e7c56" stroke-width="1.7" opacity="0.62">
    <line x1="0" y1="369" x2="800" y2="369"/>
    <line x1="0" y1="376" x2="800" y2="376"/>
    <line x1="20" y1="364" x2="20" y2="381"/><line x1="55" y1="364" x2="55" y2="381"/><line x1="90" y1="364" x2="90" y2="381"/>
    <line x1="125" y1="364" x2="125" y2="381"/><line x1="160" y1="364" x2="160" y2="381"/><line x1="195" y1="364" x2="195" y2="381"/>
    <line x1="230" y1="364" x2="230" y2="381"/><line x1="265" y1="364" x2="265" y2="381"/><line x1="300" y1="364" x2="300" y2="381"/>
    <line x1="335" y1="364" x2="335" y2="381"/><line x1="370" y1="364" x2="370" y2="381"/><line x1="405" y1="364" x2="405" y2="381"/>
    <line x1="440" y1="364" x2="440" y2="381"/><line x1="475" y1="364" x2="475" y2="381"/><line x1="510" y1="364" x2="510" y2="381"/>
    <line x1="545" y1="364" x2="545" y2="381"/><line x1="580" y1="364" x2="580" y2="381"/><line x1="615" y1="364" x2="615" y2="381"/>
    <line x1="650" y1="364" x2="650" y2="381"/><line x1="685" y1="364" x2="685" y2="381"/><line x1="720" y1="364" x2="720" y2="381"/>
    <line x1="755" y1="364" x2="755" y2="381"/><line x1="790" y1="364" x2="790" y2="381"/>
  </g>

  <rect x="0" y="390" width="800" height="15" fill="url(#sidewalkGrad)"/>
  <rect x="0" y="403" width="800" height="3" fill="#5d636a"/>
  <rect x="0" y="406" width="800" height="114" fill="url(#roadGrad)"/>
  <rect x="0" y="430" width="800" height="38" fill="#74808a" opacity="0.1"/>
  <line x1="0" y1="462" x2="800" y2="462" stroke="#c0c5c9" stroke-width="2.2" stroke-dasharray="28 20" opacity="0.45"/>
  <line x1="0" y1="435" x2="800" y2="435" stroke="#c0c5c9" stroke-width="1.4" stroke-dasharray="18 24" opacity="0.15"/>
  <line x1="0" y1="488" x2="800" y2="488" stroke="#c0c5c9" stroke-width="1.4" stroke-dasharray="18 24" opacity="0.15"/>
  <rect x="0" y="520" width="800" height="15" fill="url(#sidewalkGrad)"/>
  <rect x="0" y="535" width="800" height="65" fill="#3d6a2d"/>

  <g>
    <ellipse cx="175" cy="444" rx="38" ry="7" fill="url(#puddleGrad)">
      <animate attributeName="rx" values="38;42;38" dur="2.4s" repeatCount="indefinite"/>
    </ellipse>
    <ellipse cx="402" cy="474" rx="42" ry="8" fill="url(#puddleGrad)">
      <animate attributeName="rx" values="42;46;42" dur="2.1s" repeatCount="indefinite"/>
    </ellipse>
    <ellipse cx="642" cy="441" rx="34" ry="6" fill="url(#puddleGrad)">
      <animate attributeName="rx" values="34;37;34" dur="2.8s" repeatCount="indefinite"/>
    </ellipse>
    <ellipse cx="98" cy="302" rx="19" ry="4.5" fill="url(#puddleGrad)" opacity="0.8"/>
    <ellipse cx="437" cy="307" rx="16" ry="4" fill="url(#puddleGrad)" opacity="0.75"/>
    <ellipse cx="662" cy="300" rx="20" ry="4.5" fill="url(#puddleGrad)" opacity="0.85"/>
  </g>

  <g fill="none" stroke="#a3b4c0" stroke-width="0.7" opacity="0.35">
    <circle cx="175" cy="444" r="3">
      <animate attributeName="r" values="2;14;2" dur="1.6s" repeatCount="indefinite"/>
      <animate attributeName="opacity" values="0.5;0;0.5" dur="1.6s" repeatCount="indefinite"/>
    </circle>
    <circle cx="186" cy="442" r="2">
      <animate attributeName="r" values="1;11;1" dur="2.1s" repeatCount="indefinite"/>
      <animate attributeName="opacity" values="0.45;0;0.45" dur="2.1s" repeatCount="indefinite"/>
    </circle>
    <circle cx="402" cy="474" r="3">
      <animate attributeName="r" values="2;15;2" dur="1.7s" repeatCount="indefinite"/>
      <animate attributeName="opacity" values="0.5;0;0.5" dur="1.7s" repeatCount="indefinite"/>
    </circle>
    <circle cx="416" cy="472" r="2">
      <animate attributeName="r" values="1;12;1" dur="2s" repeatCount="indefinite"/>
      <animate attributeName="opacity" values="0.45;0;0.45" dur="2s" repeatCount="indefinite"/>
    </circle>
    <circle cx="642" cy="441" r="2">
      <animate attributeName="r" values="1;11;1" dur="1.8s" repeatCount="indefinite"/>
      <animate attributeName="opacity" values="0.45;0;0.45" dur="1.8s" repeatCount="indefinite"/>
    </circle>
  </g>

  <g opacity="0.14" filter="url(#blurSoft)">
    <ellipse cx="136" cy="447" rx="34" ry="7" fill="#b2c0cb">
      <animate attributeName="cx" values="-40;840" dur="8s" repeatCount="indefinite"/>
    </ellipse>
    <ellipse cx="454" cy="492" rx="40" ry="8" fill="#b2c0cb">
      <animate attributeName="cx" values="860;-60" dur="10s" repeatCount="indefinite"/>
    </ellipse>
  </g>

  <g color="#d84747">
    <use href="#carSymbol">
      <animateTransform attributeName="transform" type="translate" values="-70 438;870 438" dur="7.6s" repeatCount="indefinite"/>
    </use>
  </g>

  <g color="#2f69c8">
    <use href="#carSymbol">
      <animateTransform attributeName="transform" type="translate" values="-280 439;870 439" dur="10.8s" repeatCount="indefinite"/>
    </use>
  </g>

  <g color="#d3b126">
    <use href="#carSymbol">
      <animateTransform attributeName="transform" type="translate" values="870 486;-70 486" dur="8.9s" repeatCount="indefinite"/>
    </use>
  </g>

  <g color="#36935a">
    <use href="#carSymbol">
      <animateTransform attributeName="transform" type="translate" values="1030 487;-70 487" dur="11.5s" repeatCount="indefinite"/>
    </use>
  </g>

  <g filter="url(#blurSoft)" opacity="0.28">
    <ellipse cx="0" cy="438" rx="22" ry="10" fill="url(#headlightGlow)">
      <animate attributeName="cx" values="-38;902" dur="7.6s" repeatCount="indefinite"/>
    </ellipse>
    <ellipse cx="0" cy="439" rx="20" ry="9" fill="url(#headlightGlow)">
      <animate attributeName="cx" values="-248;902" dur="10.8s" repeatCount="indefinite"/>
    </ellipse>
    <ellipse cx="0" cy="486" rx="20" ry="9" fill="url(#headlightGlow)">
      <animate attributeName="cx" values="838;-102" dur="8.9s" repeatCount="indefinite"/>
    </ellipse>
  </g>

  <g>
    <rect x="247" y="319" width="4" height="81" rx="1.5" fill="#596068"/>
    <path d="M239,321 Q249,311 259,321" fill="none" stroke="#596068" stroke-width="3"/>
    <ellipse cx="249" cy="316" rx="5" ry="2.2" fill="#ffe89f"/>
    <ellipse cx="249" cy="349" rx="24" ry="40" fill="#ffe89f" opacity="0.08" filter="url(#blurSoft)"/>
  </g>

  <g>
    <rect x="498" y="319" width="4" height="81" rx="1.5" fill="#596068"/>
    <path d="M490,321 Q500,311 510,321" fill="none" stroke="#596068" stroke-width="3"/>
    <ellipse cx="500" cy="316" rx="5" ry="2.2" fill="#ffe89f"/>
    <ellipse cx="500" cy="349" rx="24" ry="40" fill="#ffe89f" opacity="0.08" filter="url(#blurSoft)"/>
  </g>

  <g stroke="#a7c3d7" stroke-width="1.45" stroke-linecap="round" opacity="0.34">
    <g>
      <animateTransform attributeName="transform" type="translate" values="0 0;24 150" dur="0.62s" repeatCount="indefinite"/>
      <use href="#rainGrid"/>
    </g>
  </g>

  <g opacity="0.2">
    <path d="M0,372 C120,360 235,383 360,370 C480,358 610,382 800,365" fill="none" stroke="#d7e6f1" stroke-width="14" filter="url(#blurSoft)">
      <animate attributeName="d" dur="3.8s" repeatCount="indefinite"
        values="M0,372 C120,360 235,383 360,370 C480,358 610,382 800,365;
                M0,378 C120,366 235,389 360,376 C480,364 610,388 800,371;
                M0,372 C120,360 235,383 360,370 C480,358 610,382 800,365"/>
    </path>
  </g>

  <g stroke="#d5e5ee" stroke-width="2.15" stroke-linecap="round" opacity="0.48" filter="url(#rainBlur)">
    <g>
      <animateTransform attributeName="transform" type="translate" values="0 0;30 150" dur="0.42s" repeatCount="indefinite"/>
      <use href="#rainGrid"/>
    </g>
  </g>

  <g opacity="0.34">
    <g fill="#bfd0db">
      <ellipse cx="145" cy="447" rx="1.6" ry="4">
        <animate attributeName="ry" values="1;5;1" dur="0.8s" repeatCount="indefinite"/>
      </ellipse>
      <ellipse cx="177" cy="444" rx="1.6" ry="5">
        <animate attributeName="ry" values="1;6;1" dur="0.7s" repeatCount="indefinite"/>
      </ellipse>
      <ellipse cx="210" cy="447" rx="1.6" ry="4">
        <animate attributeName="ry" values="1;5;1" dur="0.85s" repeatCount="indefinite"/>
      </ellipse>
      <ellipse cx="382" cy="475" rx="1.6" ry="5">
        <animate attributeName="ry" values="1;6;1" dur="0.75s" repeatCount="indefinite"/>
      </ellipse>
      <ellipse cx="402" cy="474" rx="1.6" ry="6">
        <animate attributeName="ry" values="1;7;1" dur="0.68s" repeatCount="indefinite"/>
      </ellipse>
      <ellipse cx="430" cy="473" rx="1.6" ry="5">
        <animate attributeName="ry" values="1;6;1" dur="0.8s" repeatCount="indefinite"/>
      </ellipse>
      <ellipse cx="624" cy="442" rx="1.6" ry="4">
        <animate attributeName="ry" values="1;5;1" dur="0.72s" repeatCount="indefinite"/>
      </ellipse>
      <ellipse cx="642" cy="441" rx="1.6" ry="5">
        <animate attributeName="ry" values="1;6;1" dur="0.66s" repeatCount="indefinite"/>
      </ellipse>
      <ellipse cx="664" cy="442" rx="1.6" ry="4">
        <animate attributeName="ry" values="1;5;1" dur="0.78s" repeatCount="indefinite"/>
      </ellipse>
    </g>
  </g>

  <rect x="0" y="0" width="800" height="600" fill="#b7cad5" opacity="0.07">
    <animate attributeName="opacity" values="0.05;0.1;0.05" dur="2.2s" repeatCount="indefinite"/>
  </rect>
</svg>
